<?xml version="1.0" encoding="UTF-8"?>
<svg version="1.1" xmlns="http://www.w3.org/2000/svg" width="125" height="125">
<path d="M0 0 C0.94617188 0.42410156 1.89234375 0.84820313 2.8671875 1.28515625 C19.28077294 9.44648197 30.14218162 23.8476263 36.17529297 40.85107422 C37.69898214 46.66887854 37.57477395 52.45869947 37.5 58.4375 C37.52320312 60.28698242 37.52320312 60.28698242 37.546875 62.17382812 C37.47648555 78.82973153 30.76834493 92.72460282 19.37890625 104.75 C3.96197536 119.33153069 -12.53276558 121.68285578 -32.90234375 121.375 C-40.80909293 121.08669556 -46.99696834 119.86001605 -54 116 C-55.42505859 115.25556641 -55.42505859 115.25556641 -56.87890625 114.49609375 C-69.47696729 107.22461206 -77.86840081 96.91242653 -84 84 C-84.45503906 83.04222656 -84.91007812 82.08445312 -85.37890625 81.09765625 C-90.82075413 66.97160512 -90.13162292 48.08674481 -84.546875 34.15625 C-75.95372598 16.62275401 -63.23314452 4.48393203 -44.875 -2.125 C-31.09338599 -6.31940426 -13.15162368 -6.01377664 0 0 Z " fill="#2F6E55" transform="translate(88,4)"/>
<path d="M0 0 C0.94617188 0.42410156 1.89234375 0.84820313 2.8671875 1.28515625 C19.28077294 9.44648197 30.14218162 23.8476263 36.17529297 40.85107422 C37.69898214 46.66887854 37.57477395 52.45869947 37.5 58.4375 C37.52320312 60.28698242 37.52320312 60.28698242 37.546875 62.17382812 C37.47648555 78.82973153 30.76834493 92.72460282 19.37890625 104.75 C3.96197536 119.33153069 -12.53276558 121.68285578 -32.90234375 121.375 C-40.80909293 121.08669556 -46.99696834 119.86001605 -54 116 C-55.42505859 115.25556641 -55.42505859 115.25556641 -56.87890625 114.49609375 C-69.47696729 107.22461206 -77.86840081 96.91242653 -84 84 C-84.45503906 83.04222656 -84.91007812 82.08445312 -85.37890625 81.09765625 C-90.82075413 66.97160512 -90.13162292 48.08674481 -84.546875 34.15625 C-75.95372598 16.62275401 -63.23314452 4.48393203 -44.875 -2.125 C-31.09338599 -6.31940426 -13.15162368 -6.01377664 0 0 Z M-41 1 C-41.83789062 1.25652344 -42.67578125 1.51304688 -43.5390625 1.77734375 C-59.32301778 6.95714879 -71.25816555 17.34443778 -79 32 C-85.76733638 47.165145 -87.19245298 62.03885107 -82 78 C-81.74476562 78.83917969 -81.48953125 79.67835937 -81.2265625 80.54296875 C-76.13174595 95.24315043 -63.80726303 107.25446692 -50 114 C-46.70834673 115.21246509 -43.40613178 116.1693819 -40 117 C-39.39196533 117.17128418 -38.78393066 117.34256836 -38.1574707 117.51904297 C-22.11214472 121.09596864 -5.49566764 117.41826016 8.21484375 108.91015625 C21.10128972 100.07218699 29.97514002 87.56361828 33.60522461 72.2578125 C35.73741758 60.06330381 35.03774478 46.3191828 30 35 C29.5875 34.06285156 29.175 33.12570313 28.75 32.16015625 C21.52742613 17.53034042 8.87124281 6.84560606 -6.4375 1.5 C-17.46936068 -1.68923699 -29.97881093 -2.81167606 -41 1 Z " fill="#D8DBDA" transform="translate(88,4)"/>
<path d="M0 0 C0.66 0 1.32 0 2 0 C1.24695177 15.06096465 -6.95499175 28.41928485 -17.5625 38.8125 C-26.6042273 46.49371661 -39.94282827 53.58815472 -52 53 C-52 52.34 -52 51.68 -52 51 C-56.95 51 -61.9 51 -67 51 C-67 50.67 -67 50.34 -67 50 C-65.27716797 49.96132812 -65.27716797 49.96132812 -63.51953125 49.921875 C-46.08146298 49.36032925 -30.91897099 45.15001136 -17.8046875 32.93359375 C-9.7475009 24.30089382 -5.00151961 13.86543036 -1.578125 2.6796875 C-1 1 -1 1 0 0 Z " fill="#CBCFCD" transform="translate(123,72)"/>
<path d="M0 0 C1.32 0.66 2.64 1.32 4 2 C3.67 3.32 3.34 4.64 3 6 C2.34 5.01 1.68 4.02 1 3 C2.84146317 10.76168123 5.74658432 19.68459667 12 25 C12.33 24.34 12.66 23.68 13 23 C12.34 23 11.68 23 11 23 C10.67 21.68 10.34 20.36 10 19 C11.32 19 12.64 19 14 19 C14.33 17.68 14.66 16.36 15 15 C15.33 16.32 15.66 17.64 16 19 C16 16.69 16 14.38 16 12 C17.5625 13.1875 17.5625 13.1875 19 15 C18.6875 17.6875 18.6875 17.6875 18 20 C17.01 20.33 16.02 20.66 15 21 C16.06645115 22.29633621 16.06645115 22.29633621 18.5625 22.0625 C19.7690625 22.0315625 19.7690625 22.0315625 21 22 C21 22.66 21 23.32 21 24 C19.35 24.66 17.7 25.32 16 26 C17.29299694 28.88437779 18.65941363 30.87219421 21 33 C16.7402895 31.59284249 14.08008578 29.54513289 10.8125 26.5 C9.95269531 25.7059375 9.09289062 24.911875 8.20703125 24.09375 C6.78748783 22.7470681 5.38359237 21.38359237 4 20 C3.030625 19.896875 2.06125 19.79375 1.0625 19.6875 C-2 19 -2 19 -3.875 16.5625 C-5 14 -5 14 -5 12 C-3.0625 12.75 -3.0625 12.75 -1 14 C-0.25 16.125 -0.25 16.125 0 18 C0.66 16.35 1.32 14.7 2 13 C1.195625 12.566875 0.39125 12.13375 -0.4375 11.6875 C-3 10 -3 10 -4 7 C-3.01 7 -2.02 7 -1 7 C-1.33 6.01 -1.66 5.02 -2 4 C-1.0625 1.8125 -1.0625 1.8125 0 0 Z " fill="#6B9886" transform="translate(84,21)"/>
<path d="M0 0 C3.51540122 1.92510067 5.20457333 4.25636781 7.625 7.4375 C3.875 12.3125 3.875 12.3125 1.625 13.4375 C-0.37460012 13.477492 -2.37547242 13.48096799 -4.375 13.4375 C-3.715 12.1175 -3.055 10.7975 -2.375 9.4375 C-1.385 9.4375 -0.395 9.4375 0.625 9.4375 C0.625 10.0975 0.625 10.7575 0.625 11.4375 C1.285 11.1075 1.945 10.7775 2.625 10.4375 C2.625 9.4475 2.625 8.4575 2.625 7.4375 C0.65178947 6.0648318 -1.35043152 4.73322383 -3.375 3.4375 C-4.035 2.4475 -4.695 1.4575 -5.375 0.4375 C-2.375 -0.5625 -2.375 -0.5625 0 0 Z " fill="#729C8B" transform="translate(90.375,45.5625)"/>
<path d="M0 0 C2.125 0.375 2.125 0.375 4 1 C5.35384615 8.38461538 5.35384615 8.38461538 3.5625 11.5 C3.046875 11.995 2.53125 12.49 2 13 C0.68 12.34 -0.64 11.68 -2 11 C-2.05399736 9.54207116 -2.09279177 8.08357288 -2.125 6.625 C-2.15980469 5.40683594 -2.15980469 5.40683594 -2.1953125 4.1640625 C-2 2 -2 2 0 0 Z " fill="#B2C9C0" transform="translate(32,63)"/>
<path d="M0 0 C2.125 0.375 2.125 0.375 4 1 C5.35384615 8.38461538 5.35384615 8.38461538 3.5625 11.5 C3.046875 11.995 2.53125 12.49 2 13 C0.68 12.34 -0.64 11.68 -2 11 C-2.05399736 9.54207116 -2.09279177 8.08357288 -2.125 6.625 C-2.15980469 5.40683594 -2.15980469 5.40683594 -2.1953125 4.1640625 C-2 2 -2 2 0 0 Z " fill="#B2C9C0" transform="translate(86,63)"/>
<path d="M0 0 C0.25623123 4.6121622 -0.51485596 7.19199855 -3.4375 10.75 C-5 12 -5 12 -8 12 C-9.76462683 8.91190305 -10 7.76687864 -10 4 C-9.4225 3.896875 -8.845 3.79375 -8.25 3.6875 C-5.0961478 2.72382294 -3.27642941 0 0 0 Z " fill="#528671" transform="translate(99,27)"/>
<path d="M0 0 C1.46507646 2.93015292 1.0213589 5.67768231 0.9375 8.90625 C0.85499134 11.06025522 0.85499134 11.06025522 2 13 C1.01 12.67 0.02 12.34 -1 12 C-1 11.34 -1 10.68 -1 10 C-1.9590625 10.2784375 -1.9590625 10.2784375 -2.9375 10.5625 C-3.618125 10.706875 -4.29875 10.85125 -5 11 C-6 10 -6 10 -6.25 6.5625 C-6.1675 5.386875 -6.085 4.21125 -6 3 C-3 1 -3 1 -1 1 C-0.67 0.67 -0.34 0.34 0 0 Z " fill="#226449" transform="translate(84,63)"/>
<path d="M0 0 C0.66 0 1.32 0 2 0 C2.99 1.98 3.98 3.96 5 6 C5.33 4.02 5.66 2.04 6 0 C6.33 0 6.66 0 7 0 C7 3.63 7 7.26 7 11 C6.34 11 5.68 11 5 11 C4.34 9.68 3.68 8.36 3 7 C2.67 8.65 2.34 10.3 2 12 C1.34 12 0.68 12 0 12 C0 8.04 0 4.08 0 0 Z " fill="#C7D8D1" transform="translate(63,63)"/>
<path d="M0 0 C0.66 0 1.32 0 2 0 C2 5.61 2 11.22 2 17 C1.01 17.33 0.02 17.66 -1 18 C-0.505 9.09 -0.505 9.09 0 0 Z " fill="#FCFDFD" transform="translate(123,55)"/>
<path d="M0 0 C0.66 0.33 1.32 0.66 2 1 C-2.29 5.29 -6.58 9.58 -11 14 C-11.66 13.67 -12.32 13.34 -13 13 C-4.738041 3.40546697 -4.738041 3.40546697 0 0 Z " fill="#B1B1B1" transform="translate(25,11)"/>
<path d="M0 0 C0.391875 0.515625 0.78375 1.03125 1.1875 1.5625 C0.8575 2.5525 0.5275 3.5425 0.1875 4.5625 C-4.2675 3.5725 -4.2675 3.5725 -8.8125 2.5625 C-6.8125 -0.4375 -6.8125 -0.4375 -4.375 -1.3125 C-1.8125 -1.4375 -1.8125 -1.4375 0 0 Z " fill="#417A63" transform="translate(89.8125,41.4375)"/>
<path d="M0 0 C1.9375 0.75 1.9375 0.75 4 2 C4.75 4.125 4.75 4.125 5 6 C5.66 4.68 6.32 3.36 7 2 C7.66 3.98 8.32 5.96 9 8 C6.1875 7.8125 6.1875 7.8125 3 7 C1.14766715 4.59196729 0 3.07258075 0 0 Z " fill="#84A89A" transform="translate(79,33)"/>
<path d="M0 0 C0.86625 0.4640625 0.86625 0.4640625 1.75 0.9375 C3.90435397 2.08633307 3.90435397 2.08633307 6.0625 2.3125 C8.95881461 3.34022454 9.56024166 5.37087607 11 8 C12.58245275 9.75149165 12.58245275 9.75149165 14 11 C9.96407129 9.63079505 7.32473622 7.80419512 4.1875 4.9375 C3.39730469 4.22464844 2.60710937 3.51179688 1.79296875 2.77734375 C1.20128906 2.19082031 0.60960938 1.60429688 0 1 C0 0.67 0 0.34 0 0 Z " fill="#62927E" transform="translate(91,43)"/>
<path d="M0 0 C2.25133315 1.52509665 2.93983891 2.81834728 3.9375 5.3125 C1.6875 5.625 1.6875 5.625 -1.0625 5.3125 C-3.375 2.8125 -3.375 2.8125 -5.0625 0.3125 C-2.0625 -0.6875 -2.0625 -0.6875 0 0 Z " fill="#5C8C79" transform="translate(90.0625,45.6875)"/>
<path d="M0 0 C1.98 0.99 1.98 0.99 4 2 C4 2.99 4 3.98 4 5 C5.32 5.33 6.64 5.66 8 6 C5 8 5 8 2 8 C0.23537317 4.91190305 0 3.76687864 0 0 Z " fill="#7FA596" transform="translate(89,31)"/>
<path d="M0 0 C0.66 0.66 1.32 1.32 2 2 C-0.97 4.97 -3.94 7.94 -7 11 C-7.66 10.34 -8.32 9.68 -9 9 C-6.03 6.03 -3.06 3.06 0 0 Z " fill="#23654A" transform="translate(25,16)"/>
<path d="M0 0 C0.99 0 1.98 0 3 0 C3 3.96 3 7.92 3 12 C0.97649676 8.96474514 0.67875982 7.80573798 0.375 4.3125 C0.30023438 3.50425781 0.22546875 2.69601563 0.1484375 1.86328125 C0.09945312 1.24839844 0.05046875 0.63351563 0 0 Z " fill="#175C40" transform="translate(60,63)"/>
<path d="M0 0 C0.33 0 0.66 0 1 0 C1 2.97 1 5.94 1 9 C-0.32 8.67 -1.64 8.34 -3 8 C-3 4.41465407 -1.97637955 2.92504174 0 0 Z " fill="#226449" transform="translate(46,65)"/>
<path d="M0 0 C2.29013653 3.4352048 2.17842973 4.985331 2 9 C1.01 9.33 0.02 9.66 -1 10 C-1.02689216 8.52093108 -1.04634621 7.04172517 -1.0625 5.5625 C-1.07410156 4.73878906 -1.08570312 3.91507812 -1.09765625 3.06640625 C-1 1 -1 1 0 0 Z " fill="#185C3F" transform="translate(87,64)"/>
<path d="M0 0 C2.29013653 3.4352048 2.17842973 4.985331 2 9 C1.01 9.33 0.02 9.66 -1 10 C-1.02689216 8.52093108 -1.04634621 7.04172517 -1.0625 5.5625 C-1.07410156 4.73878906 -1.08570312 3.91507812 -1.09765625 3.06640625 C-1 1 -1 1 0 0 Z " fill="#185C3F" transform="translate(33,64)"/>
<path d="M0 0 C0 0.66 0 1.32 0 2 C-1.65 2.66 -3.3 3.32 -5 4 C-5.99 3.01 -6.98 2.02 -8 1 C-5.07175348 0.02391783 -3.04386724 -0.08226668 0 0 Z " fill="#7BA293" transform="translate(105,43)"/>
<path d="M0 0 C3.125 -0.1875 3.125 -0.1875 6 0 C6 0.66 6 1.32 6 2 C3.29120665 3.35439668 0.99066732 3.06501451 -2 3 C-1.34 2.01 -0.68 1.02 0 0 Z " fill="#F2F5F3" transform="translate(74,121)"/>
<path d="M0 0 C0.66 0 1.32 0 2 0 C2 1.65 2 3.3 2 5 C0.68 5.33 -0.64 5.66 -2 6 C-1.125 1.125 -1.125 1.125 0 0 Z " fill="#D4D7D5" transform="translate(123,72)"/>
<path d="M0 0 C1.61949011 2.57213134 2.04408751 3.67669159 1.625 6.75 C1.41875 7.4925 1.2125 8.235 1 9 C0.34 9 -0.32 9 -1 9 C-1.33 6.36 -1.66 3.72 -2 1 C-1.34 0.67 -0.68 0.34 0 0 Z " fill="#165D40" transform="translate(92,63)"/>
<path d="M0 0 C0.66 0 1.32 0 2 0 C1.67 1.98 1.34 3.96 1 6 C-0.65 5.67 -2.3 5.34 -4 5 C-4 4.34 -4 3.68 -4 3 C-3.01 3 -2.02 3 -1 3 C-0.67 2.01 -0.34 1.02 0 0 Z " fill="#558974" transform="translate(81,80)"/>
<path d="M0 0 C1.98 0.495 1.98 0.495 4 1 C3.67 1.99 3.34 2.98 3 4 C2.65179959 5.66362417 2.31595508 7.32995171 2 9 C1.34 8.67 0.68 8.34 0 8 C0 5.33333333 0 2.66666667 0 0 Z " fill="#4C836C" transform="translate(52,69)"/>
<path d="M0 0 C0.66 0 1.32 0 2 0 C2.33 0.66 2.66 1.32 3 2 C3.66 1.34 4.32 0.68 5 0 C4.75 1.875 4.75 1.875 4 4 C1.9375 5.25 1.9375 5.25 0 6 C0 4.02 0 2.04 0 0 Z " fill="#769E8F" transform="translate(39,50)"/>
<path d="M0 0 C0.66 0 1.32 0 2 0 C2.33 1.65 2.66 3.3 3 5 C3.66 5 4.32 5 5 5 C4.67 5.99 4.34 6.98 4 8 C2 6.25 2 6.25 0 4 C0 2.68 0 1.36 0 0 Z " fill="#1C6145" transform="translate(92,39)"/>
</svg>
